<mxfile host="Electron" agent="Mozilla/5.0 (Windows NT 10.0; Win64; x64) AppleWebKit/537.36 (KHTML, like Gecko) draw.io/24.7.8 Chrome/128.0.6613.36 Electron/32.0.1 Safari/537.36" version="24.7.8">
  <diagram name="Page-1" id="13e1069c-82ec-6db2-03f1-153e76fe0fe0">
    <mxGraphModel dx="1050" dy="621" grid="1" gridSize="10" guides="1" tooltips="1" connect="1" arrows="1" fold="1" page="1" pageScale="1" pageWidth="1100" pageHeight="850" background="none" math="0" shadow="0">
      <root>
        <mxCell id="0" />
        <mxCell id="1" parent="0" />
        <mxCell id="7baba1c4bc27f4b0-2" value=":NotaktoGame" style="shape=umlLifeline;perimeter=lifelinePerimeter;whiteSpace=wrap;html=1;container=1;collapsible=0;recursiveResize=0;outlineConnect=0;rounded=1;shadow=0;comic=0;labelBackgroundColor=none;strokeWidth=1;fontFamily=Verdana;fontSize=12;align=center;" parent="1" vertex="1">
          <mxGeometry x="240" y="80" width="100" height="580" as="geometry" />
        </mxCell>
        <mxCell id="7baba1c4bc27f4b0-10" value="" style="html=1;points=[];perimeter=orthogonalPerimeter;rounded=0;shadow=0;comic=0;labelBackgroundColor=none;strokeWidth=1;fontFamily=Verdana;fontSize=12;align=center;" parent="7baba1c4bc27f4b0-2" vertex="1">
          <mxGeometry x="45" y="115" width="10" height="365" as="geometry" />
        </mxCell>
        <mxCell id="7baba1c4bc27f4b0-3" value="&lt;font style=&quot;font-size: 12px;&quot;&gt;:SetupGame&lt;/font&gt;" style="shape=umlLifeline;perimeter=lifelinePerimeter;whiteSpace=wrap;html=1;container=1;collapsible=0;recursiveResize=0;outlineConnect=0;rounded=1;shadow=0;comic=0;labelBackgroundColor=none;strokeWidth=1;fontFamily=Verdana;fontSize=12;align=center;" parent="1" vertex="1">
          <mxGeometry x="400" y="80" width="100" height="580" as="geometry" />
        </mxCell>
        <mxCell id="7baba1c4bc27f4b0-13" value="" style="html=1;points=[];perimeter=orthogonalPerimeter;rounded=0;shadow=0;comic=0;labelBackgroundColor=none;strokeWidth=1;fontFamily=Verdana;fontSize=12;align=center;" parent="7baba1c4bc27f4b0-3" vertex="1">
          <mxGeometry x="45" y="180" width="10" height="280" as="geometry" />
        </mxCell>
        <mxCell id="En-yLzaRTPRJBeTRG9fR-3" value="&amp;nbsp; &amp;nbsp; &amp;nbsp; &amp;nbsp; &amp;nbsp; &amp;nbsp; &amp;nbsp; Display3x3Grid()" style="html=1;verticalAlign=bottom;endArrow=block;labelBackgroundColor=none;fontFamily=Verdana;fontSize=12;elbow=vertical;edgeStyle=orthogonalEdgeStyle;curved=1;entryX=1;entryY=0.286;entryPerimeter=0;exitX=1.038;exitY=0.345;exitPerimeter=0;" parent="7baba1c4bc27f4b0-3" edge="1">
          <mxGeometry x="-0.6503" relative="1" as="geometry">
            <mxPoint x="55" y="190" as="sourcePoint" />
            <mxPoint x="60" y="228" as="targetPoint" />
            <Array as="points">
              <mxPoint x="110" y="190" />
              <mxPoint x="110" y="228" />
            </Array>
            <mxPoint as="offset" />
          </mxGeometry>
        </mxCell>
        <mxCell id="7baba1c4bc27f4b0-8" value=":Program" style="shape=umlLifeline;perimeter=lifelinePerimeter;whiteSpace=wrap;html=1;container=1;collapsible=0;recursiveResize=0;outlineConnect=0;rounded=1;shadow=0;comic=0;labelBackgroundColor=none;strokeWidth=1;fontFamily=Verdana;fontSize=12;align=center;" parent="1" vertex="1">
          <mxGeometry x="100" y="80" width="100" height="580" as="geometry" />
        </mxCell>
        <mxCell id="7baba1c4bc27f4b0-9" value="" style="html=1;points=[];perimeter=orthogonalPerimeter;rounded=0;shadow=0;comic=0;labelBackgroundColor=none;strokeWidth=1;fontFamily=Verdana;fontSize=12;align=center;" parent="7baba1c4bc27f4b0-8" vertex="1">
          <mxGeometry x="45" y="100" width="10" height="70" as="geometry" />
        </mxCell>
        <mxCell id="En-yLzaRTPRJBeTRG9fR-14" value="" style="endArrow=open;endSize=12;dashed=1;html=1;rounded=0;" parent="7baba1c4bc27f4b0-8" edge="1">
          <mxGeometry width="160" relative="1" as="geometry">
            <mxPoint x="60" y="120" as="sourcePoint" />
            <mxPoint x="180" y="120" as="targetPoint" />
          </mxGeometry>
        </mxCell>
        <mxCell id="En-yLzaRTPRJBeTRG9fR-15" value="Program executes" style="edgeLabel;html=1;align=center;verticalAlign=middle;resizable=0;points=[];" parent="En-yLzaRTPRJBeTRG9fR-14" vertex="1" connectable="0">
          <mxGeometry x="-0.04" y="12" relative="1" as="geometry">
            <mxPoint as="offset" />
          </mxGeometry>
        </mxCell>
        <mxCell id="En-yLzaRTPRJBeTRG9fR-11" value="&amp;nbsp; &amp;nbsp; &amp;nbsp; &amp;nbsp; &amp;nbsp; AddHumanPlayer():Plaer1" style="html=1;verticalAlign=bottom;endArrow=block;labelBackgroundColor=none;fontFamily=Verdana;fontSize=12;elbow=vertical;edgeStyle=orthogonalEdgeStyle;curved=1;exitX=1.066;exitY=0.713;exitPerimeter=0;" parent="1" edge="1">
          <mxGeometry x="-0.312" y="7" relative="1" as="geometry">
            <mxPoint x="465.6600000000001" y="405.01" as="sourcePoint" />
            <mxPoint x="460" y="444.1" as="targetPoint" />
            <Array as="points">
              <mxPoint x="515" y="405.1" />
              <mxPoint x="515" y="444.1" />
            </Array>
            <mxPoint x="-2" y="-5" as="offset" />
          </mxGeometry>
        </mxCell>
        <mxCell id="En-yLzaRTPRJBeTRG9fR-4" value="SetupGame()" style="html=1;verticalAlign=bottom;endArrow=block;labelBackgroundColor=none;fontFamily=Verdana;fontSize=12;edgeStyle=elbowEdgeStyle;elbow=vertical;exitX=0.82;exitY=0.173;exitDx=0;exitDy=0;exitPerimeter=0;" parent="1" edge="1" target="7baba1c4bc27f4b0-13">
          <mxGeometry x="-0.3989" y="10" relative="1" as="geometry">
            <mxPoint x="295.00000000000006" y="270.12" as="sourcePoint" />
            <mxPoint x="431.3" y="270" as="targetPoint" />
            <mxPoint as="offset" />
            <Array as="points" />
          </mxGeometry>
        </mxCell>
        <mxCell id="YDArOcmdHa2CjL3-vN0b-2" value="SetupPlayer()" style="html=1;verticalAlign=bottom;endArrow=block;labelBackgroundColor=none;fontFamily=Verdana;fontSize=12;elbow=vertical;edgeStyle=orthogonalEdgeStyle;curved=1;exitX=1.066;exitY=0.713;exitPerimeter=0;" edge="1" parent="1">
          <mxGeometry x="-0.7303" relative="1" as="geometry">
            <mxPoint x="465.6600000000001" y="340.01" as="sourcePoint" />
            <mxPoint x="460" y="379.1" as="targetPoint" />
            <Array as="points">
              <mxPoint x="515" y="340.1" />
              <mxPoint x="515" y="379.1" />
            </Array>
            <mxPoint as="offset" />
          </mxGeometry>
        </mxCell>
        <mxCell id="YDArOcmdHa2CjL3-vN0b-3" value="AddHumanPlayer():Player2" style="html=1;verticalAlign=bottom;endArrow=block;labelBackgroundColor=none;fontFamily=Verdana;fontSize=12;elbow=vertical;edgeStyle=orthogonalEdgeStyle;curved=1;exitX=1.066;exitY=0.713;exitPerimeter=0;" edge="1" parent="1">
          <mxGeometry x="-0.312" y="35" relative="1" as="geometry">
            <mxPoint x="465.6600000000001" y="490.01" as="sourcePoint" />
            <mxPoint x="460" y="529.1" as="targetPoint" />
            <Array as="points">
              <mxPoint x="515" y="490.1" />
              <mxPoint x="515" y="529.1" />
            </Array>
            <mxPoint as="offset" />
          </mxGeometry>
        </mxCell>
      </root>
    </mxGraphModel>
  </diagram>
</mxfile>
